<svg xmlns="http://www.w3.org/2000/svg" width="42" height="77" viewBox="0 0 42 77">
  <g fill="none" fill-rule="evenodd">
    <polygon fill="#813D85" points="0 29 28 29 28 15 0 15"/>
    <polygon fill="#DBBACF" points="41.518 56.254 41.52 56.254 41.52 42.411 41.518 42.411"/>
    <path fill="#DBBACF" d="M27.6507692,70.0815385 L27.6507692,56.2446154 L41.3589231,56.2446154 C41.412,56.246 41.4650769,56.2464615 41.5181538,56.2464615 L41.5181538,56.2538462 L27.8289231,56.2538462 C27.7698462,56.252 27.7103077,56.2515385 27.6507692,56.2515385 L27.6507692,70.0815385"/>
    <polygon fill="#A771A3" points="27.67 42.411 42 42.411 42 29 27.67 28.578"/>
    <path fill="#8E4E8E" d="M34.6001538,35.4892308 C30.7832308,35.4892308 27.6835385,32.396 27.6835385,28.5781538 L41.5195385,28.5781538 C41.5195385,32.396 38.4212308,35.4892308 34.6001538,35.4892308"/>
    <path fill="#C399BB" d="M42,56.2446154 L27.6507692,56.2446154 L27.6507692,42.4113846 L42,42.4113846 C39.4541538,42.4113846 39.4541538,47.0224615 42,56.2446154 Z"/>
    <path fill="#E4CAD9" d="M41.5181538,56.2464615 C41.4650769,56.2464615 41.412,56.246 41.3589231,56.2446154 L41.5181538,56.2446154 L41.5181538,56.2464615"/>
    <path fill="#CFB0C9" d="M42,56.2515385 L41.3589231,56.2446154 C37.6130769,56.1601538 35,52.7684615 35,49 C35,45.1793846 38.1812308,42.4113846 42,42.4113846 L42,56.2515385 Z"/>
    <path fill="#FFFFFE" d="M27.6406154,70.0907692 L13.8604615,70.0907692 C13.9813846,70.0907692 14.1013846,70.0875385 14.2209231,70.0815385 L14.3783077,70.0815385 L27.4287692,70.0870769 C27.4993846,70.0893846 27.5695385,70.0903077 27.6406154,70.0907692 L27.6406154,70.0907692 Z M13.8276923,70.0907692 L13.8604615,70.0907692 L13.8604615,56.282 L13.8276923,56.282 L13.8276923,70.0907692 Z"/>
    <path fill="#FFFFFE" d="M27.4287692,70.0870769 L14.3783077,70.0815385 L27.2898462,70.0815385 C27.336,70.0838462 27.3826154,70.0856923 27.4287692,70.0870769 L27.4287692,70.0870769 Z"/>
    <path fill="#E2C7D7" d="M14.3783077,70.0815385 L14.2209231,70.0815385 C14.2213846,70.0815385 14.2218462,70.0810769 14.2223077,70.0810769 L14.3783077,70.0815385"/>
    <path fill="#E2C7D7" d="M27.2898462,70.0815385 L14.3783077,70.0815385 L14.2223077,70.0810769 C17.6792308,69.9033846 20.4632308,67.1918462 20.7563077,63.7686154 C21.0498462,67.1923077 23.8333846,69.9043077 27.2898462,70.0815385 M20.7563077,62.5704615 C20.4530769,59.0318462 17.4835385,56.2515385 13.8613846,56.2515385 L27.6507692,56.2515385 C24.0286154,56.2515385 21.06,59.0313846 20.7563077,62.5704615"/>
    <path fill="#FFFFFE" d="M27.6406154 70.0907692C27.5695385 70.0903077 27.4993846 70.0893846 27.4287692 70.0870769L27.6507692 70.0870769 27.6507692 70.0889231 27.6406154 70.0889231C27.6406154 70.0893846 27.6406154 70.0898462 27.6406154 70.0907692M27.6507692 70.0870769L27.4287692 70.0870769C27.3826154 70.0856923 27.336 70.0838462 27.2898462 70.0815385L27.6507692 70.0815385 27.6507692 70.0870769"/>
    <path fill="#F1E2E9" d="M27.6507692,70.0815385 L27.2898462,70.0815385 C23.8333846,69.9043077 21.0498462,67.1923077 20.7563077,63.7686154 C20.7733846,63.5715385 20.7821538,63.3712308 20.7821538,63.1695385 C20.7821538,62.9678462 20.7733846,62.768 20.7563077,62.5704615 C21.06,59.0313846 24.0286154,56.2515385 27.6507692,56.2515385 L27.6507692,70.0815385"/>
    <path fill="#FFFFFE" d="M13.8604615 70.0907692L13.8604615 56.282 13.8613846 56.282 13.8613846 70.0815385 14.2209231 70.0815385C14.1013846 70.0875385 13.9813846 70.0907692 13.8604615 70.0907692M13.8613846 56.282L13.8604615 56.282 13.8604615 56.2515385C13.8604615 56.2515385 13.8609231 56.2515385 13.8613846 56.2515385L13.8613846 56.282"/>
    <path fill="#EAD6E1" d="M14.2209231,70.0815385 L13.8613846,70.0815385 L13.8613846,56.282 L13.8669231,70.0810769 L14.2223077,70.0810769 C14.2218462,70.0810769 14.2213846,70.0815385 14.2209231,70.0815385"/>
    <path fill="#EAD7E1" d="M14.2223077,70.0810769 L13.8669231,70.0810769 L13.8613846,56.282 L13.8613846,56.2515385 C17.4835385,56.2515385 20.4530769,59.0318462 20.7563077,62.5704615 C20.7396923,62.768 20.7309231,62.9678462 20.7309231,63.1695385 C20.7309231,63.3712308 20.7396923,63.5715385 20.7563077,63.7686154 C20.4632308,67.1918462 17.6792308,69.9033846 14.2223077,70.0810769"/>
    <path fill="#F6EAEF" d="M20.7563077,63.7686154 C20.7396923,63.5715385 20.7309231,63.3712308 20.7309231,63.1695385 C20.7309231,62.9678462 20.7396923,62.768 20.7563077,62.5704615 C20.7733846,62.768 20.7821538,62.9678462 20.7821538,63.1695385 C20.7821538,63.3712308 20.7733846,63.5715385 20.7563077,63.7686154"/>
    <path fill="#D2AAC4" d="M27.6507692,56.2515385 L13.8613846,56.2515385 C17.6801538,56.2515385 20.778,53.1546154 20.7812308,49.3353846 C24.5783077,49.3086154 27.6507692,46.2172308 27.6507692,42.4113846 L27.6507692,56.2515385"/>
    <path fill="#E7D0DC" d="M13.8613846,56.2515385 L0,56.2515385 L0,42.4113846 L13.8193846,42.4113846 C13.8193846,42.6698462 13.8336923,42.9246154 13.8613846,43.1761538 L13.8613846,56.2515385"/>
    <polyline fill="#E7D0DC" points="13.861 56.252 13.828 56.252 13.861 56.252"/>
    <path fill="#CA97B8" d="M20.7812308,49.3353846 C20.7812308,49.3335385 20.7812308,49.3316923 20.7812308,49.3298462 C20.7812308,45.5133846 17.682,42.4113846 13.8613846,42.4113846 L27.6507692,42.4113846 C27.6507692,46.2172308 24.5783077,49.3086154 20.7812308,49.3353846"/>
    <path fill="#CD9DBC" d="M13.8613846,43.1761538 C13.8336923,42.9246154 13.8193846,42.6698462 13.8193846,42.4113846 L13.8613846,42.4113846 L13.8613846,43.1761538"/>
    <path fill="#E0C2D4" d="M13.8613846,56.2515385 L13.8613846,43.1761538 C14.2412308,46.6390769 17.172,49.3353846 20.7318462,49.3353846 C20.7484615,49.3353846 20.7646154,49.3353846 20.7812308,49.3353846 C20.778,53.1546154 17.6801538,56.2515385 13.8613846,56.2515385"/>
    <path fill="#D8B4CB" d="M20.7318462,49.3353846 C17.172,49.3353846 14.2412308,46.6390769 13.8613846,43.1761538 L13.8613846,42.4113846 C17.682,42.4113846 20.7812308,45.5133846 20.7812308,49.3298462 C20.7812308,49.3316923 20.7812308,49.3335385 20.7812308,49.3353846 C20.7646154,49.3353846 20.7484615,49.3353846 20.7318462,49.3353846"/>
    <path fill="#BB94B8" d="M0,43 C4.61107692,40.5171498 6.91661538,37.9857429 6.91661538,35.4057794 C9.46430769,35.4057794 7.15876923,33.2705196 0,29 L14,29 L14,43 L0,43 Z"/>
    <path fill="#B583AE" d="M14,29 L28,29 L20.7516923,35.4892308 C16.4447179,38.1277949 14.1941538,40.6313846 14,43 L14,29 Z"/>
    <path fill="#AE7CAA" d="M0,29 L14,29 C14,32.8238462 10.8672227,36 7,36 C7,32.1821538 3.86675563,29 0,29 Z"/>
    <path fill="#AE7CAA" d="M0,29 C0,32.8699453 3.17661538,36 7,36 C7,39.8699453 3.82107692,43 0,43 L0,29 Z"/>
    <path fill="#AA75A5" d="M0,29 C3.86714267,29 7,32.1330306 7,36 C3.13052182,36 0,32.8730466 0,29 Z"/>
    <polyline fill="#B788B1" points="13.838 42.411 0 42.411 13.838 42.411"/>
    <path fill="#C68FB4" d="M27.9184615,42.8332308 L27.9184615,42.8332308 C27.9184615,39.0121538 24.8201538,35.9110769 21,35.9110769 C21,32.0932308 24.0983077,29 27.9184615,29 L27.9184615,42.8332308"/>
    <path fill="#A06A9F" d="M13.8613846,42.4113846 L13.8378462,42.4113846 C13.8378462,42.2184615 13.8456923,42.0269231 13.8613846,41.8376923 L13.8613846,42.4113846"/>
    <path fill="#9E669C" d="M27.6701538,42.4113846 L13.8613846,42.4113846 L13.8613846,41.8376923 C14.1526154,38.2847692 17.1263077,35.4892308 20.7516923,35.4892308 C20.7516923,39.3130769 23.85,42.4113846 27.6701538,42.4113846"/>
    <path fill="#A3699E" d="M27.6701538,42.4113846 C23.85,42.4113846 20.7516923,39.3130769 20.7516923,35.4892308 C24.5718462,35.4892308 27.6701538,38.5903077 27.6701538,42.4113846"/>
    <polygon fill="#682A7A" points="0 15 28 15 28 29 42 29 42 0 0 0"/>
    <path fill="#E1C5D5" d="M35.175195,77 C38.9444307,77 42,73.7646993 42,69.7737536 C42,69.7737536 28,65.782808 28,69.7737536 C28,73.7646993 31.4059593,77 35.175195,77 Z"/>
    <path fill="#D2A9C4" d="M41.5195385,69.836 C41.5190769,69.8258462 41.5186154,69.8156923 41.5181538,69.8055385 L41.5181538,56.2538462 L41.5195385,56.2538462 L41.5195385,69.836"/>
    <path fill="#D2AAC4" d="M42,70 L28.0075385,70.0810769 C30.378,60.9256923 30.3184615,56.3166154 27.8289231,56.2538462 L42,56.2446154 L42,70 Z"/>
    <path fill="#E1C5D5" d="M41.5181538,70.0930769 L41.4766154,70.0930769 C41.4766154,70.0916923 41.4766154,70.0903077 41.4766154,70.0889231 L31.2447692,70.0889231 L41.5181538,70.0889231 L41.5181538,70.0930769"/>
    <path fill="#D6AFC8" d="M31.2447692,70.0975385 L27.81,70.0975385 C27.8289231,70.0965385 27.8469231,70.0955385 27.8658462,70.0935385 L31.2447692,70.0975385 L31.2447692,70.0975385 Z"/>
    <path fill="#D5AFC8" d="M41.5181538,70.0889231 L31.2447692,70.0889231 L27.8658462,70.0870769 C27.9143077,70.0856923 27.9627692,70.0838462 28.0107692,70.0815385 L41.5181538,70.0815385 L41.5181538,70.0889231"/>
    <path fill="#FFFFFE" d="M41.5236923,70.0815385 L41.5195385,70.0815385 L41.5195385,69.836 C41.5223077,69.9172308 41.5236923,69.9989231 41.5236923,70.0815385"/>
    <path fill="#E4CAD9" d="M41.5195385,70.0815385 L41.5181538,70.0815385 L41.5181538,69.8055385 C41.5186154,69.8156923 41.5190769,69.8258462 41.5195385,69.836 L41.5195385,70.0815385"/>
    <polyline fill="#FFFFFE" points="27.688 70.089 27.651 70.089 27.651 70.087 27.66 70.087 27.66 70.089 27.688 70.089"/>
    <polygon fill="#FFFFFE" points="27.651 70.087 27.66 70.087 27.66 70.082 27.651 70.082"/>
    <path fill="#ECDBE4" d="M27.6876923,70.0889231 L27.6595385,70.0889231 L27.6595385,70.0870769 L27.6876923,70.0870769 C27.6876923,70.088 27.6876923,70.088 27.6876923,70.0889231"/>
    <path fill="#EDDBE4" d="M27.6876923,70.0870769 L27.6595385,70.0870769 L27.6595385,70.0815385 L27.6876923,70.0815385 C27.6876923,70.0833846 27.6876923,70.0852308 27.6876923,70.0870769"/>
    <path fill="#FFFFFE" d="M27.6507692,70.0907692 L27.6507692,70.0889231 L27.6876923,70.0889231 C27.6876923,70.0893846 27.6876923,70.0898462 27.6876923,70.0903077 C27.6756923,70.0903077 27.6627692,70.0907692 27.6507692,70.0907692"/>
    <path fill="#DFC2D4" d="M27.81,70.0889231 L27.6876923,70.0889231 C27.6876923,70.088 27.6876923,70.088 27.6876923,70.0870769 L27.8658462,70.0870769 C27.8469231,70.088 27.8289231,70.0884615 27.81,70.0889231"/>
    <path fill="#E0C2D4" d="M27.8658462,70.0870769 L27.6876923,70.0870769 C27.6876923,70.0852308 27.6876923,70.0833846 27.6876923,70.0815385 L28.0107692,70.0815385 C27.9627692,70.0838462 27.9143077,70.0856923 27.8658462,70.0870769"/>
    <path fill="#E8D2DE" d="M27.6876923,70.0903077 C27.6876923,70.0898462 27.6876923,70.0893846 27.6876923,70.0889231 L27.81,70.0889231 C27.7693846,70.0898462 27.7287692,70.0903077 27.6876923,70.0903077"/>
    <path fill="#E4CAD9" d="M27.6507692,70.0815385 L27.6507692,56.2515385 C27.7103077,56.2515385 27.7698462,56.252 27.8289231,56.2538462 L27.6595385,56.2538462 L27.6595385,69.7293846 C27.6535385,69.8461538 27.6507692,69.9633846 27.6507692,70.0815385"/>
    <path fill="#DDBED1" d="M27.6595385,69.7293846 L27.6595385,56.2538462 L27.8289231,56.2538462 C31.5632308,56.348 34.5604615,59.4029231 34.5673846,63.1570769 C30.8672308,63.1663077 27.8427692,66.0721538 27.6595385,69.7293846"/>
    <path fill="#EFDEE5" d="M27.6595385,70.0815385 L27.6507692,70.0815385 C27.6507692,69.9633846 27.6535385,69.8461538 27.6595385,69.7293846 L27.6595385,70.0815385"/>
    <path fill="#EAD6E1" d="M28.0107692,70.0815385 L27.6595385,70.0815385 L27.6595385,69.7293846 C27.8427692,66.0721538 30.8672308,63.1663077 34.5673846,63.1570769 C34.5673846,63.1612308 34.5673846,63.1653846 34.5673846,63.1695385 C34.5673846,66.8706154 31.6643077,69.8936923 28.0107692,70.0815385"/>
  </g>
</svg>
